<?xml version="1.0" encoding="UTF-8" standalone="no"?>
<svg
   width="16"
   height="16"
   fill="currentColor"
   class="bi bi-currency-dollar"
   viewBox="0 0 16 16"
   version="1.1"
   id="svg815"
   sodipodi:docname="currency-dollar.svg"
   inkscape:version="1.2.1 (9c6d41e410, 2022-07-14)"
   xmlns:inkscape="http://www.inkscape.org/namespaces/inkscape"
   xmlns:sodipodi="http://sodipodi.sourceforge.net/DTD/sodipodi-0.dtd"
   xmlns="http://www.w3.org/2000/svg"
   xmlns:svg="http://www.w3.org/2000/svg">
  <defs
     id="defs819" />
  <sodipodi:namedview
     id="namedview817"
     pagecolor="#505050"
     bordercolor="#eeeeee"
     borderopacity="1"
     inkscape:showpageshadow="0"
     inkscape:pageopacity="0"
     inkscape:pagecheckerboard="0"
     inkscape:deskcolor="#505050"
     showgrid="false"
     inkscape:zoom="43.5625"
     inkscape:cx="8.0114778"
     inkscape:cy="8.0114778"
     inkscape:window-width="1600"
     inkscape:window-height="877"
     inkscape:window-x="-8"
     inkscape:window-y="-8"
     inkscape:window-maximized="1"
     inkscape:current-layer="svg815" />
  <path
     d="M4 10.781c.148 1.667 1.513 2.85 3.591 3.003V15h1.043v-1.216c2.27-.179 3.678-1.438 3.678-3.3 0-1.59-.947-2.51-2.956-3.028l-.722-.187V3.467c1.122.11 1.879.714 2.07 1.616h1.47c-.166-1.6-1.54-2.748-3.54-2.875V1H7.591v1.233c-1.939.23-3.27 1.472-3.27 3.156 0 1.454.966 2.483 2.661 2.917l.61.162v4.031c-1.149-.17-1.94-.8-2.131-1.718H4zm3.391-3.836c-1.043-.263-1.6-.825-1.6-1.616 0-.944.704-1.641 1.8-1.828v3.495l-.2-.05zm1.591 1.872c1.287.323 1.852.859 1.852 1.769 0 1.097-.826 1.828-2.2 1.939V8.73l.348.086z"
     id="path813"
     style="fill:#000080" />
</svg>
